# xmcd CD database file
# Copyright (C) 1993-1998 Ti Kan
# 
# Track frame offsets:
#     150
#     10905
#     21852
#     33310
#     45452
#     64435
#     80890
#     93590
#     107997
#     124025
#     137762
#     152245
#     168470
#     185657
#     195460
#     210715
#     224345
#     237860
# 
# Disc length: 3344 seconds
# 
# Revision: 1
# Processed by: cddbd v1.4b41PL1 Copyright (c) Steve Scherf et al.
# Submitted via: DiscPlay 4.0.4
# 
DISCID=060d0e12
DTITLE=Roy C - Sex And Singles (45's)
DYEAR=1900
DGENRE=
TTITLE0=Shotgun Wedding
TTITLE1=I Divorce Court
TTITLE2=I Don't Want To Worry
TTITLE3=I Found A Man In My Bed
TTITLE4=I'm Falling In Love Again
TTITLE5=A Merry Black Xmas
TTITLE6=Got To Get Enough
TTITLE7=Open Letter To The President
TTITLE8=I Wasn't There
TTITLE9=Those Days Are Gone
TTITLE10=I'm Gonna Love Somebody Else's Woman
TTITLE11=I'll Never Leave You Lonely
TTITLE12=Since I Met You Baby (Duet with Linda Caver)
TTITLE13=Lonely I Was (Duet with Linda Caver)
TTITLE14=I Caught You In The Act
TTITLE15=Back In My Arms
TTITLE16=We're On The Road To Hell
TTITLE17=Since God Made A Woman
EXTD=
EXTT0=
EXTT1=
EXTT2=
EXTT3=
EXTT4=
EXTT5=
EXTT6=
EXTT7=
EXTT8=
EXTT9=
EXTT10=
EXTT11=
EXTT12=
EXTT13=
EXTT14=
EXTT15=
EXTT16=
EXTT17=
PLAYORDER=
